<?xml version="1.0" ?><!DOCTYPE svg  PUBLIC '-//W3C//DTD SVG 1.1//EN'  'http://www.w3.org/Graphics/SVG/1.1/DTD/svg11.dtd'><svg height="256px" style="enable-background:new 0 0 256 256;" version="1.1" viewBox="0 0 256 256" width="256px" xml:space="preserve" xmlns="http://www.w3.org/2000/svg" xmlns:xlink="http://www.w3.org/1999/xlink"><g id="Background_1_" style="enable-background:new    ;"><g id="Background"><g><path d="M249.422,30.68c-2.721-4.986-5.816-9.537-9.793-13.521     c-3.992-3.998-8.709-7.587-13.703-10.314c-8.381-4.576-18.788-6.855-29.002-6.855H59.075c-10.444,0-20.542,2.344-29.265,6.948     c-5.022,2.649-9.588,6.146-13.502,10.126c-3.932,3.998-7.491,8.488-10.046,13.572c-4.289,8.533-6.274,18.478-6.274,28.65v137.43     c0,10.326,1.671,20.678,6.296,29.134c2.681,4.9,6.191,9.86,10.087,13.795c3.934,3.97,8.583,7.225,13.503,9.955     c8.465,4.7,18.842,6.413,29.201,6.413h137.849c10.568,0,20.399-1.523,28.982-6.401c4.739-2.692,9.879-6.113,13.687-9.966     c3.923-3.968,7.2-8.851,9.886-13.799c4.566-8.415,6.533-18.874,6.533-29.131V59.285C256.012,48.978,254.031,39.124,249.422,30.68     z" style="fill-rule:evenodd;clip-rule:evenodd;fill:#FFE591;"/></g></g></g><g id="Shape_4_1_" style="enable-background:new    ;"><g id="Shape_4"><g><path d="M169.217,151.074c-2.088-20.866-29.861-35.239-62.04-32.095     c-32.171,3.145-56.568,22.611-54.478,43.479c2.09,20.876,29.865,35.248,62.039,32.11     C146.916,191.425,171.303,171.957,169.217,151.074z" style="fill-rule:evenodd;clip-rule:evenodd;fill:#FFFFFF;"/></g></g></g><g id="Shape_3_1_" style="enable-background:new    ;"><g id="Shape_3"><g><path d="M179.092,125.276c-2.738-0.812-4.615-1.361-3.18-4.917     c3.104-7.715,3.425-14.372,0.059-19.121c-6.311-8.908-23.572-8.427-43.359-0.239c0-0.011-6.212,2.687-4.625-2.184     c3.044-9.67,2.585-17.771-2.151-22.444c-10.736-10.616-39.284,0.399-63.764,24.585c-18.333,18.12-28.979,37.325-28.979,53.928     c0,31.76,41.215,51.07,81.536,51.07c52.858,0,88.019-30.345,88.019-54.443C202.648,136.952,190.239,128.692,179.092,125.276z      M114.738,194.569c-32.174,3.138-59.949-11.234-62.039-32.11c-2.09-20.868,22.307-40.335,54.478-43.479     c32.179-3.145,59.952,11.229,62.04,32.095C171.303,171.957,146.916,191.425,114.738,194.569z" style="fill-rule:evenodd;clip-rule:evenodd;fill:#CD201F;"/></g></g></g><g id="Shape_2_1_" style="enable-background:new    ;"><g id="Shape_2"><g><path d="M117.572,134.441c-15.319-3.905-32.636,3.573-39.29,16.802     c-6.777,13.483-0.225,28.456,15.254,33.354c16.032,5.063,34.93-2.701,41.5-17.255     C141.516,153.107,133.426,138.454,117.572,134.441z M105.874,168.889c-3.115,4.863-9.783,6.996-14.806,4.749     c-4.949-2.204-6.411-7.861-3.296-12.604c3.076-4.729,9.52-6.834,14.505-4.785C107.321,158.354,108.931,163.969,105.874,168.889z      M116.131,155.985c-1.125,1.887-3.615,2.794-5.565,2.007c-1.917-0.772-2.518-2.878-1.429-4.735     c1.122-1.844,3.513-2.744,5.427-1.999C116.508,151.952,117.206,154.086,116.131,155.985z" style="fill-rule:evenodd;clip-rule:evenodd;fill:#232323;"/></g></g></g><g id="Shape_1_1_" style="enable-background:new    ;"><g id="Shape_1"><g><path d="M212.111,67.308c-12.48-14.403-30.891-19.894-47.882-16.133     h-0.007c-3.932,0.876-6.438,4.901-5.598,8.986c0.839,4.089,4.706,6.701,8.639,5.829c12.088-2.672,25.168,1.236,34.043,11.467     c8.863,10.23,11.271,24.185,7.475,36.416l0.002,0.004c-1.236,3.986,0.856,8.247,4.689,9.535c3.817,1.288,7.922-0.891,9.16-4.864     c0-0.008,0-0.022,0.003-0.03C227.965,101.311,224.595,81.696,212.111,67.308z M169.621,77.464     c-3.383,0.751-5.54,4.218-4.815,7.743c0.726,3.51,4.052,5.767,7.429,5.001v0.007c4.048-0.89,8.436,0.409,11.404,3.831     c2.975,3.43,3.773,8.104,2.497,12.203h0.007c-1.061,3.422,0.738,7.103,4.03,8.214c3.292,1.097,6.823-0.773,7.884-4.203     c2.603-8.383,0.977-17.936-5.111-24.95C186.871,78.296,177.901,75.632,169.621,77.464z" style="fill-rule:evenodd;clip-rule:evenodd;fill:#DD880C;"/></g></g></g></svg>