<?xml version="1.0" standalone="no"?>
<!DOCTYPE svg PUBLIC "-//W3C//DTD SVG 20010904//EN"
 "http://www.w3.org/TR/2001/REC-SVG-20010904/DTD/svg10.dtd">
<svg version="1.0" xmlns="http://www.w3.org/2000/svg"
 width="512.000000pt" height="512.000000pt" viewBox="0 0 512.000000 512.000000"
 preserveAspectRatio="xMidYMid meet">
<metadata>
Created by potrace 1.11, written by Peter Selinger 2001-2013
</metadata>
<g transform="translate(0.000000,512.000000) scale(0.100000,-0.100000)"
fill="#000000" stroke="none">
<path d="M447 4857 c-29 -29 -62 -73 -75 -98 -13 -25 -41 -69 -63 -97 -25 -35
-39 -63 -39 -83 0 -17 -13 -49 -30 -74 -16 -24 -30 -48 -30 -54 0 -21 -25 -91
-32 -91 -5 0 -8 -7 -8 -15 0 -8 -4 -24 -10 -35 -5 -11 -14 -29 -20 -40 -5 -11
-10 -29 -10 -41 0 -11 -13 -39 -28 -62 -16 -23 -37 -60 -47 -82 l-18 -40 -16
35 c-15 34 -16 28 -19 -149 -1 -101 0 -186 2 -188 3 -3 11 -1 18 3 17 11 49 6
68 -11 24 -20 80 -35 131 -35 56 0 85 -10 116 -39 12 -12 29 -21 37 -21 8 0
18 -4 21 -10 3 -5 14 -10 23 -10 9 0 30 -13 45 -30 22 -23 37 -30 67 -30 23 0
61 -12 95 -30 31 -16 65 -30 75 -30 11 0 22 -4 25 -10 3 -5 15 -10 26 -10 10
0 19 -4 19 -9 0 -9 40 -18 125 -28 34 -4 60 -14 85 -34 22 -19 46 -29 67 -29
17 0 35 -4 38 -10 3 -5 17 -10 30 -10 13 0 40 -8 62 -19 56 -27 105 -41 145
-41 20 0 53 -8 75 -19 59 -29 125 -41 224 -41 78 0 99 -4 152 -29 96 -44 116
-51 142 -51 37 0 32 -32 -7 -49 -18 -8 -52 -27 -75 -43 -26 -17 -55 -28 -76
-28 -24 0 -43 -9 -65 -30 -18 -17 -43 -30 -56 -30 -27 0 -106 -39 -106 -52 0
-4 -15 -8 -32 -8 -36 -1 -61 -15 -71 -42 -3 -10 -13 -18 -20 -18 -23 0 -71
-28 -97 -55 -13 -14 -28 -25 -34 -25 -6 -1 -27 -14 -46 -30 -19 -17 -44 -30
-56 -30 -13 0 -36 -11 -52 -25 -17 -14 -34 -25 -39 -25 -5 0 -22 -12 -39 -27
-17 -16 -43 -35 -60 -43 -16 -8 -44 -27 -62 -42 -18 -16 -41 -28 -52 -28 -11
0 -35 -9 -53 -19 -46 -26 -67 -36 -102 -52 -16 -7 -49 -26 -72 -41 -23 -15
-47 -28 -53 -28 -7 0 -25 -13 -40 -30 -15 -16 -33 -30 -38 -30 -15 0 -294
-281 -311 -313 -12 -23 -12 -31 0 -54 19 -35 95 -83 133 -83 18 0 51 -13 76
-30 25 -16 52 -30 61 -30 10 0 43 -14 75 -31 33 -17 79 -38 104 -46 25 -9 51
-24 58 -34 9 -13 25 -19 53 -19 27 0 54 -9 82 -28 41 -27 101 -52 126 -52 7 0
33 -14 58 -31 l46 -32 136 6 c147 7 175 4 187 -21 5 -10 12 -143 16 -297 9
-327 20 -478 38 -520 12 -28 20 -74 36 -208 4 -32 11 -60 15 -63 5 -3 9 -16 9
-29 0 -13 5 -27 10 -30 6 -3 10 -14 10 -23 0 -23 57 -92 76 -92 8 0 22 -4 32
-9 9 -5 28 -13 42 -19 14 -5 38 -15 53 -21 31 -12 619 -16 631 -4 27 27 118
32 563 33 524 0 534 1 601 66 23 23 42 47 42 53 0 7 9 21 19 32 25 27 31 54
41 174 11 128 17 160 41 212 15 33 19 66 19 140 0 103 16 254 30 288 16 37 22
80 30 215 14 208 19 236 45 250 30 16 95 -3 95 -28 1 -9 14 -33 30 -52 17 -19
30 -46 30 -61 0 -18 10 -36 30 -52 17 -14 30 -30 30 -36 0 -11 14 -30 69 -93
35 -39 86 -68 123 -68 28 0 78 38 78 59 0 9 13 32 30 51 16 19 29 40 30 46 0
6 31 43 70 83 39 39 70 78 70 86 0 8 4 15 10 15 5 0 23 24 40 53 16 29 41 64
55 77 14 13 25 29 25 35 0 6 14 21 30 33 17 13 30 32 30 43 0 19 16 59 29 69
3 3 31 34 61 70 75 89 94 107 132 128 18 10 34 27 36 38 2 11 12 24 24 29 24
11 31 23 49 83 7 23 16 42 20 42 24 0 49 46 49 92 0 36 4 48 15 48 8 0 15 -9
15 -19 0 -11 5 -23 10 -26 6 -4 10 33 10 105 0 72 -4 109 -10 105 -5 -3 -10
-15 -10 -26 0 -26 -47 -26 -75 1 -27 25 -212 110 -241 110 -11 0 -33 14 -49
30 -24 25 -37 30 -75 30 -36 0 -53 6 -80 30 -19 16 -43 29 -53 30 -10 0 -35
13 -55 29 -35 27 -52 34 -127 48 -16 3 -49 19 -72 34 -24 17 -55 29 -72 29
-21 0 -42 10 -63 30 -28 27 -37 30 -98 30 -61 0 -69 3 -95 30 -16 17 -37 30
-46 30 -10 0 -21 5 -24 10 -3 6 -12 10 -20 10 -7 0 -27 14 -45 30 -22 21 -42
30 -65 30 -18 0 -38 7 -46 16 -27 32 -67 44 -154 44 -77 0 -88 2 -108 23 -12
13 -32 29 -44 36 -52 27 -6 81 68 81 26 0 51 5 54 10 3 6 17 10 30 10 13 0 27
5 30 10 3 6 17 10 30 10 13 0 27 5 30 10 3 6 28 10 56 10 49 0 139 33 139 51
0 5 31 9 70 9 38 0 82 5 97 11 109 44 124 48 263 69 36 6 88 14 115 19 162 31
242 40 346 41 116 0 148 6 226 41 24 10 47 19 51 19 12 0 52 44 52 58 0 33
-122 132 -162 132 -11 0 -18 7 -18 20 0 14 -10 25 -30 33 -16 7 -58 40 -92 72
-84 79 -171 145 -191 145 -11 0 -17 8 -17 21 0 22 -86 119 -106 119 -6 0 -19
19 -30 42 -14 32 -30 48 -63 65 -25 12 -88 62 -140 111 -126 116 -162 147
-183 155 -10 4 -18 13 -18 21 0 8 -21 33 -46 55 -54 48 -84 52 -147 20 -23
-12 -59 -30 -79 -40 -20 -11 -46 -19 -58 -19 -11 0 -23 -7 -26 -15 -3 -8 -31
-22 -62 -32 -32 -9 -64 -23 -74 -31 -9 -7 -45 -20 -80 -28 -34 -8 -76 -24 -92
-35 -15 -12 -49 -29 -75 -38 -56 -20 -148 -85 -156 -111 -3 -10 -14 -20 -25
-23 -11 -3 -24 -17 -30 -31 -5 -14 -14 -26 -19 -26 -5 0 -54 -42 -108 -94
-113 -107 -191 -176 -201 -176 -4 0 -23 -15 -42 -33 -19 -18 -55 -48 -80 -66
-62 -47 -70 -59 -70 -103 0 -26 -4 -38 -14 -38 -8 0 -29 -18 -46 -40 -28 -35
-37 -40 -73 -40 -34 0 -48 6 -70 30 -19 20 -38 30 -57 30 -18 0 -42 11 -62 29
-18 15 -51 34 -73 41 -22 7 -50 17 -62 23 -31 14 -167 155 -190 197 -11 19
-28 36 -39 38 -11 1 -25 16 -32 31 -9 21 -35 40 -98 72 -48 23 -89 50 -92 58
-10 26 -81 89 -120 108 -20 9 -43 25 -50 35 -7 10 -24 18 -37 18 -16 0 -31 10
-42 28 -10 15 -24 31 -31 35 -7 5 -25 22 -39 38 -16 17 -46 34 -78 44 -29 8
-55 22 -59 30 -3 8 -13 15 -22 15 -10 0 -32 12 -51 26 -19 14 -57 34 -85 44
-28 9 -58 24 -67 31 -9 8 -30 20 -46 28 -17 7 -38 17 -47 22 -10 5 -24 9 -31
9 -8 0 -22 9 -32 20 -10 11 -25 20 -33 20 -28 0 -87 24 -103 42 -13 14 -32 18
-83 18 l-67 0 -52 -53z m258 -117 c0 -23 4 -25 47 -26 52 -2 84 -11 75 -21
-17 -17 19 -33 74 -33 58 0 59 -1 59 -27 0 -43 11 -51 65 -55 41 -2 52 -7 60
-26 9 -20 33 -35 60 -37 5 0 12 -11 15 -25 5 -22 12 -26 60 -30 49 -4 55 -7
53 -27 -2 -16 7 -25 37 -37 31 -12 40 -21 40 -40 0 -28 16 -36 75 -36 40 0 44
-2 50 -29 5 -23 13 -31 33 -33 18 -2 27 -9 27 -21 0 -21 22 -37 53 -37 16 0
22 -6 22 -24 0 -28 21 -48 47 -46 49 6 63 -1 77 -34 9 -22 23 -36 40 -40 17
-4 26 -13 26 -26 0 -14 10 -22 33 -28 31 -8 32 -10 37 -68 5 -54 7 -59 29 -59
19 0 27 -8 33 -33 8 -29 13 -32 46 -33 57 -2 82 -12 95 -39 11 -22 19 -25 62
-25 42 0 50 -3 50 -18 0 -28 34 -47 82 -47 39 0 44 -3 57 -35 l15 -35 95 0 96
0 6 28 c10 47 12 50 36 54 20 3 23 10 26 51 3 43 6 48 36 61 21 9 36 23 40 39
4 17 15 26 37 31 26 5 30 10 27 33 -3 24 1 28 25 31 21 3 29 10 33 32 5 22 13
29 39 34 24 5 35 13 37 28 2 14 12 24 28 28 17 4 28 16 35 38 5 19 16 32 26
32 22 0 41 24 37 46 -2 12 4 20 17 22 28 6 45 21 45 42 0 12 11 20 34 24 25 5
36 13 38 28 2 18 13 24 58 33 50 9 55 13 60 40 4 21 11 29 22 27 9 -1 28 13
43 32 23 31 33 35 78 38 45 3 52 6 57 28 5 23 11 25 65 27 95 2 122 10 129 38
6 23 17 28 95 38 14 2 25 18 35 50 5 14 18 17 86 17 l80 0 0 -29 c0 -31 22
-57 40 -46 6 4 15 -7 21 -25 7 -17 22 -35 34 -40 13 -5 25 -19 27 -31 2 -16
13 -25 36 -31 22 -6 32 -14 32 -28 0 -13 10 -22 31 -28 24 -6 34 -16 43 -42 8
-24 18 -36 34 -38 14 -2 22 -10 22 -23 0 -12 10 -23 25 -29 14 -5 29 -20 34
-33 10 -26 29 -37 62 -37 13 0 20 -6 18 -17 -4 -30 12 -53 36 -53 19 0 24 -6
27 -32 2 -21 9 -34 18 -34 8 -1 21 -2 28 -3 6 0 12 -10 12 -21 0 -13 12 -25
36 -35 21 -8 33 -19 29 -25 -9 -15 24 -39 52 -40 17 0 22 -7 25 -32 3 -32 5
-33 53 -38 42 -4 52 -9 62 -31 7 -15 26 -32 43 -39 51 -21 23 -30 -95 -30
l-114 0 -18 -30 -17 -30 -201 0 c-165 0 -204 -3 -223 -16 -12 -8 -22 -22 -22
-30 0 -11 -21 -14 -112 -15 -160 -1 -202 -8 -206 -36 -4 -26 -2 -25 -61 -28
-46 -2 -71 -22 -71 -57 0 -16 -13 -18 -127 -20 l-128 -3 -3 -27 -3 -28 -186 0
-185 0 -11 -30 c-6 -17 -20 -30 -31 -32 -11 -2 -27 -15 -35 -30 -14 -24 -14
-28 3 -47 10 -11 28 -21 40 -23 11 -2 21 -10 22 -18 1 -8 2 -21 2 -27 2 -10
33 -13 122 -13 l120 0 14 -33 c12 -31 18 -35 67 -40 30 -4 71 -7 92 -7 29 0
37 -4 37 -19 0 -31 22 -40 110 -43 80 -3 84 -4 90 -28 5 -19 13 -25 36 -26 74
-2 86 -4 81 -16 -2 -7 3 -21 11 -31 14 -16 14 -19 2 -28 -8 -5 -28 -8 -45 -7
-16 1 -39 -3 -50 -9 -15 -8 -42 -7 -109 7 -101 21 -145 47 -261 153 -78 71
-100 82 -138 68 -34 -13 -42 -49 -23 -95 11 -27 13 -43 5 -63 l-10 -26 -32 30
c-18 17 -111 71 -207 120 -262 135 -361 195 -341 208 18 10 3 24 -52 49 -29
13 -66 35 -83 49 -42 35 -111 67 -149 67 -17 0 -59 11 -95 24 -71 26 -371 147
-435 176 -22 10 -76 32 -120 50 -44 17 -96 38 -115 47 -19 8 -44 19 -55 23
-11 4 -36 15 -55 23 -19 9 -55 23 -80 33 -25 9 -49 21 -54 26 -6 4 -18 8 -27
8 -9 0 -22 7 -29 15 -11 13 -9 20 10 40 12 13 21 28 19 33 -5 13 -509 412
-520 412 -15 0 -58 -53 -58 -70 0 -8 99 -93 220 -189 121 -95 218 -175 216
-178 -3 -2 -27 6 -53 18 -82 36 -106 46 -189 79 -44 18 -98 40 -120 50 -106
48 -271 110 -282 105 -7 -2 -13 -11 -13 -18 0 -20 -30 -77 -40 -77 -10 0 -40
-57 -40 -77 0 -7 10 -17 23 -22 44 -17 421 -203 446 -220 14 -9 44 -22 66 -30
22 -7 49 -16 60 -21 11 -4 47 -18 80 -30 33 -12 79 -31 102 -41 24 -11 45 -19
48 -19 3 0 27 -9 53 -21 121 -54 149 -63 312 -109 25 -7 56 -16 70 -21 67 -23
272 -70 414 -95 194 -33 313 -78 419 -157 40 -30 82 -59 95 -66 17 -9 22 -20
22 -50 0 -27 11 -55 40 -99 l40 -62 -33 -1 c-17 -1 -38 -1 -45 0 -20 3 -42
-19 -42 -40 0 -16 -8 -19 -52 -19 -70 0 -88 -18 -88 -84 0 -48 -2 -52 -30 -63
-28 -10 -30 -15 -30 -62 0 -45 -3 -51 -20 -51 -25 0 -40 -35 -40 -96 0 -39 -2
-44 -23 -44 -27 0 -47 -17 -41 -35 4 -8 -6 -16 -26 -20 -22 -5 -36 -16 -44
-37 -7 -16 -24 -35 -37 -42 -16 -7 -24 -20 -24 -36 0 -15 -5 -24 -13 -22 -21
4 -52 -17 -52 -36 0 -11 -12 -21 -32 -27 -31 -9 -33 -13 -38 -65 -5 -55 -5
-55 -45 -63 -64 -14 -70 -20 -73 -74 -3 -48 -5 -51 -33 -57 -19 -4 -33 -13
-36 -26 -3 -11 -9 -20 -14 -20 -4 0 -19 -10 -33 -23 -19 -17 -26 -35 -28 -73
l-3 -49 -55 -5 c-48 -4 -55 -8 -60 -30 -5 -22 -11 -25 -50 -25 l-45 0 0 175
c0 167 1 175 20 178 11 3 23 9 27 16 4 6 8 64 8 129 0 115 -1 118 -24 127 -15
5 -27 20 -31 39 -7 34 -9 36 -47 45 -53 12 -58 -6 -58 -208 l0 -182 -30 -11
-30 -11 0 -181 c0 -165 -2 -181 -17 -182 -65 -5 -292 -8 -311 -4 -12 3 -31 20
-42 38 -18 29 -25 32 -67 32 -40 0 -48 3 -51 20 -6 28 -20 35 -79 35 -44 0
-53 3 -53 18 -1 34 -23 48 -73 45 -45 -2 -48 0 -62 33 -15 36 -13 36 -134 39
-47 1 -59 14 -60 66 -1 19 7 29 32 40 21 9 31 20 29 32 -2 12 4 17 18 17 33 0
60 19 60 41 0 14 9 21 29 25 22 5 30 13 35 34 3 20 12 29 28 32 18 2 24 10 26
36 3 32 4 32 56 32 55 0 89 16 84 40 -2 11 9 16 47 18 55 4 75 15 75 43 0 16
8 19 54 19 59 0 86 16 86 51 0 12 7 19 18 19 25 0 42 19 42 47 0 21 4 23 53
23 59 0 82 11 82 37 0 11 9 19 24 21 15 3 27 14 34 33 10 25 16 29 52 29 49 1
86 28 78 58 -5 19 0 21 58 24 57 3 64 5 67 25 2 16 12 23 42 28 22 4 44 4 49
1 12 -8 41 21 41 40 0 8 10 15 23 15 12 1 29 3 37 4 8 1 25 3 37 4 16 1 25 10
31 33 l8 31 82 3 c88 2 116 15 107 45 -6 17 0 19 47 19 59 0 83 11 83 37 0 11
12 21 32 27 18 5 35 17 39 28 8 25 -20 66 -48 70 -13 2 -23 10 -24 18 -1 8 -2
21 -2 28 -2 8 -25 12 -81 12 -92 0 -111 5 -111 31 0 26 -25 35 -105 38 -50 1
-73 6 -80 17 -33 51 -23 49 -216 54 l-183 5 -6 25 c-6 24 -9 25 -103 28 -90 2
-98 4 -92 21 9 30 -16 40 -105 43 -80 3 -83 4 -87 28 -2 13 -8 29 -12 33 -5 5
-58 11 -118 13 -59 2 -111 3 -114 4 -4 0 -12 14 -19 30 -12 28 -16 30 -66 30
-50 0 -54 2 -54 24 0 26 -28 36 -100 36 -33 0 -38 3 -43 29 -5 25 -11 29 -57
35 -41 5 -53 11 -60 30 -13 35 -21 37 -133 41 -56 2 -105 4 -109 4 -17 2 -6
17 22 33 29 17 30 19 30 93 0 71 1 76 25 85 24 9 38 40 35 76 -5 46 0 64 19
64 26 0 37 18 40 65 2 44 15 65 42 65 22 0 29 21 33 107 3 62 6 69 30 81 27
14 28 18 30 92 1 41 3 45 29 48 21 3 27 9 27 27 0 16 7 26 23 30 12 4 33 19
47 34 24 25 29 26 100 21 72 -5 75 -6 75 -30z m-45 -676 c0 -2 -7 -4 -15 -4
-8 0 -15 4 -15 10 0 5 7 7 15 4 8 -4 15 -8 15 -10z m56 -20 c39 -16 75 -31
137 -58 17 -8 57 -24 87 -36 57 -22 82 -33 162 -69 26 -11 50 -21 53 -21 3 0
27 -9 53 -21 26 -12 56 -25 67 -29 11 -4 36 -15 55 -23 19 -8 67 -28 105 -43
39 -15 74 -31 80 -35 5 -5 17 -9 27 -9 10 0 18 -4 18 -10 0 -5 12 -10 27 -10
19 0 24 -3 17 -10 -7 -7 -19 -8 -35 -2 -13 6 -44 16 -69 23 -25 7 -72 25 -105
39 -33 15 -121 50 -195 79 -74 29 -144 57 -155 61 -11 5 -38 15 -60 22 -22 7
-58 24 -81 38 -23 14 -85 45 -138 70 -52 25 -96 48 -96 53 0 10 2 9 46 -9z
m3282 -1101 c6 -9 12 -23 12 -30 0 -14 2 -15 105 -18 39 -2 73 -3 78 -4 4 -1
7 -9 7 -20 0 -27 24 -43 54 -35 39 9 79 -3 72 -23 -9 -22 11 -33 61 -33 56 0
73 -8 73 -34 0 -32 19 -46 64 -46 47 0 58 -6 75 -37 10 -20 20 -23 66 -23 52
0 55 -1 55 -25 0 -29 14 -34 119 -37 69 -3 75 -5 76 -25 2 -28 11 -38 33 -38
25 0 20 -24 -8 -38 -21 -11 -25 -20 -26 -63 -1 -57 -10 -78 -29 -70 -17 6 -50
-30 -35 -39 17 -11 1 -25 -30 -25 -22 0 -30 -6 -39 -30 -7 -21 -17 -30 -31
-30 -14 0 -24 -9 -31 -30 -7 -19 -18 -30 -30 -30 -22 0 -41 -32 -33 -54 3 -9
1 -16 -5 -16 -19 0 -25 -2 -43 -11 -22 -12 -23 10 -8 92 11 59 1 127 -28 189
-15 30 -30 40 -102 70 -106 44 -124 55 -116 68 4 7 18 7 43 0 44 -11 112 -25
163 -34 30 -5 40 -2 63 21 15 15 27 33 27 40 0 20 -43 52 -90 68 -189 64 -379
156 -402 197 -14 25 -24 30 -53 30 -24 0 -51 10 -80 30 -24 17 -46 30 -50 30
-3 0 -29 17 -58 38 -29 22 -59 42 -67 45 -8 3 19 4 60 1 54 -3 79 -10 88 -21z
m-1025 -220 c158 -155 267 -246 317 -265 14 -5 39 -7 57 -5 30 5 33 2 77 -67
67 -105 95 -129 145 -124 l41 4 1 -93 c1 -51 2 -103 2 -115 1 -15 -5 -24 -17
-26 -14 -3 -17 0 -13 12 9 24 -31 46 -85 46 -44 0 -48 2 -48 24 0 31 -12 38
-68 41 -25 1 -48 7 -50 13 -8 26 -45 62 -60 60 -14 -2 -18 7 -20 47 -4 54 -16
77 -41 73 -10 -2 -17 7 -21 27 -4 21 -12 31 -27 33 -13 2 -25 14 -32 32 -7 21
-19 32 -43 38 -25 6 -33 13 -33 32 0 19 -7 26 -30 30 -17 4 -29 12 -27 19 4
19 -17 41 -38 41 -12 0 -21 10 -25 31 -4 19 -16 34 -31 39 -28 11 -34 23 -37
74 -3 39 -21 59 -48 50 -13 -4 -18 4 -21 35 -3 40 0 66 9 58 2 -3 77 -77 166
-164z m135 51 c36 -55 22 -60 -28 -9 -42 42 -43 45 -20 45 18 0 32 -11 48 -36z
m-468 -29 c4 -21 12 -31 30 -35 21 -5 27 -14 35 -60 10 -51 19 -62 58 -74 10
-3 16 -10 12 -16 -3 -5 2 -21 11 -35 13 -20 19 -23 30 -14 8 6 14 10 15 8 0
-2 2 -15 5 -28 5 -30 22 -51 40 -51 7 0 22 -13 34 -30 12 -16 30 -30 41 -30
16 0 19 -5 14 -19 -6 -21 22 -44 47 -39 7 2 14 -8 16 -22 5 -33 20 -50 43 -50
11 0 19 -7 19 -17 0 -26 14 -44 36 -47 10 -2 21 -11 23 -22 5 -31 23 -45 50
-42 20 2 26 -2 27 -18 2 -31 12 -44 38 -44 16 0 24 -8 31 -32 9 -31 14 -33 62
-38 28 -3 53 -8 55 -10 2 -3 12 -17 21 -32 11 -18 22 -25 36 -21 16 4 20 -1
23 -24 3 -24 8 -28 38 -31 19 -1 45 -5 58 -7 l22 -5 0 -430 0 -430 -24 -10
c-13 -5 -28 -14 -32 -21 -4 -7 -7 -87 -6 -178 2 -91 -1 -171 -5 -177 -5 -7
-17 -13 -28 -15 -18 -4 -21 -14 -25 -94 l-5 -89 -40 -9 c-22 -5 -75 -6 -118
-4 -77 5 -77 5 -92 -24 -9 -16 -21 -29 -28 -29 -24 0 -1335 -1 -1419 0 -82 0
-87 1 -90 22 -2 17 -12 24 -33 28 -29 5 -30 8 -33 60 -3 56 -17 85 -34 74 -23
-14 -28 32 -28 263 0 241 0 242 -22 254 -13 7 -26 17 -30 23 -4 6 -8 129 -8
274 l0 262 55 0 c54 0 56 1 62 30 l6 30 81 0 c44 0 88 4 96 10 8 5 17 31 20
62 4 45 8 53 29 58 25 6 42 35 34 58 -3 7 4 12 18 12 37 0 46 11 54 67 5 43
10 52 28 55 15 2 25 14 32 36 5 19 16 32 26 32 19 0 35 17 40 44 4 17 20 25
57 28 9 1 11 9 8 24 -5 19 0 25 29 35 21 8 35 20 37 33 2 12 13 23 27 26 25 6
42 35 34 58 -3 7 4 12 20 12 29 0 50 21 42 42 -4 11 3 17 25 22 20 3 34 13 37
26 3 10 13 22 23 25 34 11 45 37 50 119 5 76 6 81 30 86 22 5 25 11 28 60 4
76 5 77 54 76 39 -1 43 -3 48 -31z m1070 -140 c30 -16 42 -55 17 -55 -14 0
-67 50 -67 63 0 11 19 8 50 -8z m-106 -102 c10 -24 -2 -29 -19 -7 -8 10 -15
22 -15 26 0 13 28 -3 34 -19z m812 -167 c72 -29 85 -46 64 -83 -10 -18 -24
-27 -43 -28 -35 -1 -66 -39 -67 -78 0 -16 -4 -26 -10 -22 -9 5 -15 235 -7 235
2 0 30 -11 63 -24z m169 -346 c3 -5 1 -10 -4 -10 -6 0 -11 5 -11 10 0 6 2 10
4 10 3 0 8 -4 11 -10z m-785 -43 c0 -12 11 -40 25 -62 31 -51 31 -55 -2 -55
-46 0 -52 10 -49 80 4 76 3 73 16 65 6 -3 10 -16 10 -28z m540 -251 c0 -8 -5
-18 -10 -21 -6 -4 -9 -14 -8 -23 2 -11 -6 -18 -27 -22 -24 -4 -31 -11 -33 -33
-2 -18 -9 -27 -21 -27 -28 0 -39 -20 -43 -75 -2 -37 -7 -51 -20 -53 -12 -2
-17 5 -20 30 -2 25 -9 34 -28 38 -22 5 -25 12 -28 55 -2 27 -8 52 -13 55 -5 4
2 17 16 30 19 18 28 21 37 12 7 -7 38 -12 70 -12 52 0 59 3 80 30 23 32 48 40
48 16z m47 8 c-3 -3 -12 -4 -19 -1 -8 3 -5 6 6 6 11 1 17 -2 13 -5z"/>
<path d="M670 4523 c0 -49 -12 -93 -43 -152 -20 -40 -22 -64 -4 -59 21 6 64
107 75 176 12 69 10 82 -14 82 -10 0 -14 -13 -14 -47z"/>
<path d="M1942 1624 c-11 -8 -15 -34 -16 -103 -1 -78 2 -94 16 -102 9 -5 73
-9 142 -9 140 0 146 3 146 74 0 52 -15 83 -45 90 -15 4 -30 17 -35 31 -5 14
-13 25 -17 25 -91 6 -179 3 -191 -6z"/>
<path d="M3044 1619 c-8 -8 -14 -24 -14 -33 0 -10 -5 -16 -12 -13 -7 2 -22 1
-33 -3 -16 -6 -20 -18 -22 -70 -2 -36 2 -69 8 -77 15 -18 264 -19 275 -1 9 14
9 176 0 198 -9 22 -181 22 -202 -1z"/>
<path d="M2527 912 c-15 -16 -17 -43 -17 -190 0 -94 4 -182 9 -196 9 -23 14
-24 75 -21 35 1 69 6 75 10 8 4 11 64 10 192 -2 207 -4 213 -69 213 -21 0 -45
2 -52 5 -8 3 -22 -3 -31 -13z"/>
</g>
</svg>
