<?xml version="1.0" standalone="no"?>
<!DOCTYPE svg PUBLIC "-//W3C//DTD SVG 20010904//EN"
 "http://www.w3.org/TR/2001/REC-SVG-20010904/DTD/svg10.dtd">
<svg version="1.0" xmlns="http://www.w3.org/2000/svg"
 width="180.000000pt" height="180.000000pt" viewBox="0 0 180.000000 180.000000"
 preserveAspectRatio="xMidYMid meet">
<metadata>
Created by potrace 1.11, written by Peter Selinger 2001-2013
</metadata>
<g transform="translate(0.000000,180.000000) scale(0.100000,-0.100000)"
fill="#000000" stroke="none">
<path d="M0 900 l0 -900 900 0 900 0 0 900 0 900 -900 0 -900 0 0 -900z m250
770 c0 -5 9 -10 20 -10 11 0 20 -4 20 -10 0 -5 11 -10 25 -10 14 0 25 -4 25
-10 0 -5 6 -10 13 -10 7 0 24 -11 39 -25 15 -14 34 -25 43 -25 8 0 15 -4 15
-10 0 -5 7 -10 15 -10 8 0 15 -7 15 -16 0 -8 4 -13 9 -10 4 3 18 -2 29 -12 54
-46 63 -52 72 -52 13 0 70 -57 70 -70 0 -17 34 -50 52 -50 10 0 18 -4 18 -10
0 -5 9 -10 20 -10 11 0 20 -4 20 -10 0 -5 11 -10 25 -10 16 0 25 -6 25 -15 0
-23 52 -19 73 5 9 11 17 25 17 30 0 13 99 110 111 110 5 0 9 5 9 11 0 14 81
89 95 89 6 0 17 9 25 20 8 11 25 20 37 20 13 0 23 5 23 10 0 6 11 10 24 10 14
0 31 7 40 15 8 8 22 15 30 15 9 0 16 5 16 10 0 6 16 10 35 10 25 0 35 -4 35
-16 0 -8 5 -12 10 -9 6 3 10 1 10 -5 0 -12 24 -40 35 -40 10 0 35 -28 35 -39
0 -6 3 -11 8 -11 12 -1 82 -67 82 -79 0 -6 4 -11 9 -11 4 0 21 -13 38 -28 16
-16 44 -37 61 -48 44 -25 40 -34 -13 -34 -25 0 -45 -4 -45 -10 0 -6 -33 -10
-80 -10 -47 0 -80 -4 -80 -10 0 -5 -22 -10 -49 -10 -46 0 -111 -25 -111 -42 0
-5 -20 -8 -45 -8 -25 0 -45 -4 -45 -10 0 -6 -29 -10 -66 -10 -60 0 -94 -13
-94 -35 0 -18 32 -35 65 -35 20 0 43 -7 51 -15 9 -8 26 -15 40 -15 13 0 24 -4
24 -10 0 -5 16 -10 35 -10 19 0 35 -4 35 -10 0 -5 9 -10 20 -10 11 0 20 -4 20
-10 0 -5 16 -10 35 -10 24 0 35 -5 35 -15 0 -10 11 -15 35 -15 19 0 35 -4 35
-10 0 -5 12 -10 26 -10 14 0 23 -4 19 -10 -4 -6 5 -10 19 -10 14 0 26 -4 26
-9 0 -5 11 -12 25 -15 14 -4 25 -11 25 -16 0 -6 9 -10 20 -10 11 0 20 -4 20
-10 0 -5 14 -10 31 -10 33 0 74 -30 51 -38 -6 -2 -12 -12 -12 -23 0 -11 -25
-44 -55 -74 -30 -29 -55 -58 -55 -65 0 -6 -11 -21 -25 -34 -14 -13 -25 -31
-25 -40 0 -9 -4 -16 -10 -16 -5 0 -10 -7 -10 -15 0 -8 -7 -15 -16 -15 -8 0
-12 -4 -9 -10 3 -5 1 -10 -5 -10 -18 0 -40 -27 -40 -49 0 -12 -3 -21 -6 -21
-10 0 -33 33 -34 47 0 21 -78 93 -100 93 -19 0 -20 6 -20 125 0 116 -1 125
-19 125 -25 0 -28 -12 -24 -102 2 -65 0 -78 -13 -78 -8 0 -12 5 -9 10 4 6 -5
10 -19 10 -14 0 -26 5 -26 10 0 6 -8 10 -18 10 -18 0 -52 33 -52 50 0 6 -29
40 -64 76 -36 35 -68 73 -71 84 -4 11 -11 20 -16 20 -5 0 -9 16 -9 35 0 33 -2
35 -35 35 -19 0 -35 -4 -35 -9 0 -5 -10 -11 -22 -13 -15 -2 -24 -11 -26 -25
-2 -13 -8 -23 -13 -23 -5 0 -9 -9 -9 -20 0 -11 -4 -20 -10 -20 -5 0 -10 -9
-10 -20 0 -12 -25 -45 -60 -79 -33 -32 -60 -66 -60 -75 0 -9 -8 -16 -20 -16
-12 0 -20 -7 -20 -16 0 -9 -11 -27 -25 -40 -14 -13 -25 -30 -25 -39 0 -8 -9
-15 -20 -15 -11 0 -20 -4 -20 -10 0 -5 -9 -10 -20 -10 -18 0 -20 7 -20 64 0
36 5 68 10 71 26 16 -2 115 -32 115 -5 0 -8 -31 -8 -70 0 -40 -4 -70 -10 -70
-6 0 -10 -28 -10 -65 0 -59 -2 -65 -23 -70 -34 -9 -110 0 -115 14 -2 6 -12 11
-23 11 -10 0 -19 5 -19 10 0 6 -11 10 -25 10 -14 0 -25 5 -25 10 0 6 -9 10
-20 10 -11 0 -20 4 -20 10 0 5 -16 12 -35 16 -21 4 -35 12 -35 21 0 16 44 63
60 63 5 0 10 5 10 11 0 17 27 39 49 39 12 0 21 5 21 10 0 6 9 10 20 10 11 0
20 5 20 10 0 6 8 10 19 10 10 0 27 11 37 25 10 14 27 25 36 25 10 0 18 5 18
10 0 6 5 10 11 10 6 0 17 7 26 15 8 8 19 13 24 10 5 -4 9 1 9 9 0 10 9 16 25
16 14 0 25 5 25 10 0 6 9 10 20 10 11 0 20 5 20 10 0 6 11 10 25 10 16 0 25 6
25 15 0 10 11 15 35 15 19 0 35 5 35 10 0 6 9 10 20 10 11 0 20 5 20 10 0 6 7
10 15 10 8 0 15 3 15 8 0 15 -41 42 -65 42 -13 0 -27 5 -30 10 -3 6 -19 10
-35 10 -15 0 -30 7 -34 15 -4 11 -22 15 -71 15 -37 0 -65 4 -65 10 0 6 -16 10
-35 10 -19 0 -35 5 -35 10 0 6 -15 10 -34 10 -19 0 -36 5 -38 11 -2 6 -21 13
-43 16 -22 3 -41 9 -43 14 -2 5 -12 9 -23 9 -10 0 -19 5 -19 10 0 6 -11 10
-25 10 -14 0 -25 5 -25 10 0 6 -9 10 -19 10 -10 0 -21 7 -25 15 -3 10 -19 15
-46 15 -22 0 -40 5 -40 10 0 6 5 10 10 10 6 0 10 14 10 30 0 17 5 30 10 30 6
0 10 11 10 25 0 14 5 25 10 25 6 0 10 8 10 18 0 9 7 26 15 36 8 11 15 28 15
38 0 10 5 18 10 18 6 0 10 9 10 20 0 33 40 69 78 69 17 1 32 -3 32 -9z m691
-712 c11 -11 19 -26 19 -32 0 -7 9 -18 20 -26 11 -8 20 -20 20 -27 0 -7 4 -13
8 -13 13 0 82 -67 82 -79 0 -6 4 -11 8 -11 4 0 25 -16 46 -35 21 -19 44 -35
50 -35 6 0 18 -9 26 -20 8 -11 22 -20 32 -20 21 0 21 3 18 -180 -1 -74 -6
-136 -11 -138 -5 -2 -9 -33 -9 -68 0 -36 -4 -64 -10 -64 -5 0 -10 -16 -10 -35
0 -35 0 -35 -45 -35 -25 0 -45 -4 -45 -10 0 -6 -97 -10 -271 -10 -283 0 -299
2 -299 44 0 9 -4 16 -10 16 -6 0 -10 37 -10 90 0 53 -4 90 -10 90 -6 0 -10 42
-10 105 0 98 1 105 20 105 11 0 20 5 20 10 0 6 16 10 35 10 29 0 35 4 35 20 0
12 11 32 25 46 14 14 25 29 25 34 0 5 41 49 90 99 66 66 90 97 90 116 0 14 5
25 10 25 6 0 10 11 10 25 0 31 26 33 51 3z"/>
<path d="M680 535 l0 -35 50 0 c47 0 50 2 50 25 0 16 -6 25 -15 25 -8 0 -15 5
-15 10 0 6 -16 10 -35 10 -33 0 -35 -2 -35 -35z"/>
<path d="M1063 555 c-7 -8 -13 -23 -13 -35 0 -17 6 -20 45 -20 45 0 45 0 45
35 0 33 -2 35 -32 35 -18 -1 -39 -7 -45 -15z"/>
<path d="M890 250 c0 -68 1 -70 25 -70 24 0 25 2 25 70 0 68 -1 70 -25 70 -24
0 -25 -2 -25 -70z"/>
</g>
</svg>
